# xmcd CD database file
#
# Track frame offsets:
#	150
#	16890
#	38128
#	55915
#	75580
#	89755
#	108718
#	128310
#	147523
#	164715
#	179770
#	204270
#
# Disc length: 3005 seconds
#
# Revision: 2
# Processed by: cddbd v1.5.1PL2 Copyright (c) Steve Scherf et al.
# Submitted via: CDex 1.51
#
DISCID=a60bbb0c
DTITLE=Gerry Mulligan - Re-birth Of The Cool
DYEAR=1992
DGENRE=Jazz
TTITLE0=Israel
TTITLE1=Deception
TTITLE2=Move
TTITLE3=Rouge
TTITLE4=Rocker
TTITLE5=Godchild
TTITLE6=Moon Dreams
TTITLE7=Venus De Milo
TTITLE8=Budo
TTITLE9=Boplicity
TTITLE10=Darn That Dream
TTITLE11=Jeru
EXTD=YEAR: 1992
EXTT0=
EXTT1=
EXTT2=
EXTT3=
EXTT4=
EXTT5=
EXTT6=
EXTT7=
EXTT8=
EXTT9=
EXTT10=
EXTT11=
PLAYORDER=
